<svg width="1108" height="732" viewBox="0 0 1108 732" fill="none" xmlns="http://www.w3.org/2000/svg">
<g clip-path="url(#clip0)">
<path d="M554 731.18C859.966 731.18 1108 720.659 1108 707.68C1108 694.701 859.966 684.18 554 684.18C248.034 684.18 0 694.701 0 707.68C0 720.659 248.034 731.18 554 731.18Z" fill="#3F3D56"/>
<path opacity="0.1" d="M554 731.18C859.966 731.18 1108 720.659 1108 707.68C1108 694.701 859.966 684.18 554 684.18C248.034 684.18 0 694.701 0 707.68C0 720.659 248.034 731.18 554 731.18Z" fill="#1F1E1E"/>
<path d="M517 738C822.966 738 1071 727.479 1071 714.5C1071 701.521 822.966 691 517 691C211.034 691 -37 701.521 -37 714.5C-37 727.479 211.034 738 517 738Z" fill="#1F1E1E"/>
<path d="M745.57 331.15C738.957 328.883 732.29 326.783 725.57 324.85C726.677 320.323 727.707 315.773 728.66 311.2C743.8 237.69 733.9 178.47 700.09 158.98C667.67 140.28 614.65 159.78 561.09 206.37C555.81 210.983 550.653 215.717 545.62 220.57C542.24 217.337 538.807 214.167 535.32 211.06C479.21 161.23 423 140.24 389.18 159.79C356.79 178.54 347.18 234.21 360.83 303.88C362.163 310.78 363.693 317.64 365.42 324.46C357.47 326.72 349.78 329.13 342.42 331.7C276.63 354.59 234.61 390.59 234.61 427.88C234.61 466.39 279.72 505.02 348.25 528.44C353.81 530.327 359.41 532.08 365.05 533.7C363.223 541.033 361.597 548.427 360.17 555.88C347.17 624.34 357.33 678.7 389.63 697.33C423 716.59 479 696.79 533.52 649.13C537.83 645.36 542.15 641.36 546.52 637.18C551.973 642.44 557.57 647.547 563.31 652.5C616.13 697.95 668.31 716.31 700.57 697.62C733.9 678.33 744.73 619.93 730.67 548.89C729.603 543.463 728.36 537.927 726.94 532.28C730.88 531.12 734.733 529.917 738.5 528.67C809.74 505.07 856.1 466.91 856.1 427.88C856.1 390.45 812.72 354.26 745.6 331.15H745.57Z" fill="#53C1DE"/>
<path d="M730.12 503.47C726.72 504.6 723.24 505.68 719.68 506.74C710.994 479.811 700.48 453.506 688.21 428.01C700.012 402.853 710.118 376.936 718.46 350.43C724.81 352.27 730.99 354.21 736.93 356.26C794.44 376.05 829.52 405.32 829.52 427.88C829.52 451.88 791.63 483.09 730.12 503.47ZM704.6 554.05C710.82 585.46 711.7 613.86 707.6 636.05C703.9 656 696.46 669.3 687.26 674.63C667.67 685.96 625.79 671.23 580.62 632.36C575.44 627.9 570.23 623.15 564.99 618.11C583.822 597.261 601.225 575.164 617.08 551.97C645.401 549.57 673.524 545.227 701.25 538.97C702.517 544.09 703.64 549.09 704.62 553.97L704.6 554.05ZM446.48 672.69C427.34 679.45 412.1 679.64 402.89 674.33C383.29 663.02 375.14 619.33 386.26 560.83C387.593 553.917 389.103 547.04 390.79 540.2C418.401 546.128 446.382 550.181 474.54 552.33C490.859 575.443 508.681 597.457 527.89 618.23C524.03 621.97 520.083 625.607 516.05 629.14C491.94 650.22 467.77 665.14 446.48 672.69ZM356.84 503.32C326.53 492.96 301.51 479.5 284.35 464.82C268.94 451.62 261.16 438.51 261.16 427.88C261.16 405.25 294.9 376.38 351.16 356.77C358.227 354.31 365.357 352.067 372.55 350.04C380.907 376.839 391.025 403.056 402.84 428.52C390.878 454.349 380.636 480.94 372.18 508.12C367.02 506.647 361.907 505.047 356.84 503.32ZM386.89 298.78C375.21 239.09 382.96 194.06 402.48 182.78C423.27 170.78 469.24 187.9 517.7 230.93C520.8 233.68 523.91 236.56 527.02 239.53C507.948 260.176 490.266 282.064 474.09 305.05C446.197 307.551 418.496 311.857 391.16 317.94C389.567 311.593 388.143 305.21 386.89 298.79V298.78ZM655 364.97C648.927 354.477 642.63 344.117 636.11 333.89C655.94 336.4 674.93 339.72 692.77 343.8C687.045 361.96 680.407 379.82 672.88 397.31C667.14 386.41 661.18 375.63 655 364.97ZM545.64 258.5C558.564 272.59 570.769 287.322 582.21 302.64C557.737 301.487 533.253 301.487 508.76 302.64C520.83 286.72 533.2 271.92 545.64 258.51V258.5ZM435.64 365.15C429.54 375.73 423.69 386.443 418.09 397.29C410.36 378.96 403.75 360.93 398.35 343.52C416.08 339.52 434.99 336.31 454.69 333.84C448.077 344.133 441.72 354.57 435.62 365.15H435.64ZM455.25 523.8C436.022 521.713 416.913 518.639 398 514.59C403.49 496.88 410.25 478.46 418.15 459.73C423.77 470.59 429.64 481.31 435.76 491.89C441.987 502.683 448.477 513.32 455.23 523.8H455.25ZM546.39 599.13C533.79 585.59 521.24 570.59 509 554.38C520.9 554.853 533.02 555.09 545.36 555.09C558.027 555.09 570.53 554.81 582.87 554.25C571.479 569.825 559.296 584.804 546.37 599.13H546.39ZM673.08 458.78C680.997 476.625 687.979 494.869 694 513.44C674.853 517.748 655.493 521.049 636 523.33C642.567 512.91 648.927 502.367 655.08 491.7C661.333 480.86 667.333 469.887 673.08 458.78ZM632.08 478.44C622.667 494.787 612.73 510.82 602.27 526.54C583.83 527.86 564.78 528.54 545.36 528.54C525.94 528.54 507.21 527.94 489.09 526.76C478.363 511.093 468.233 495.037 458.7 478.59C449.167 462.143 440.33 445.45 432.19 428.51C440.37 411.49 449.18 394.79 458.62 378.41C468.047 362.037 478.09 346.037 488.75 330.41C507.24 329.01 526.18 328.28 545.34 328.28C564.5 328.28 583.56 329.02 602.03 330.42C612.57 346 622.57 361.937 632.03 378.23C641.49 394.523 650.42 411.147 658.82 428.1C650.52 445.18 641.617 461.947 632.11 478.4L632.08 478.44ZM686.85 181.98C707.66 193.98 715.75 242.38 702.68 305.85C701.82 309.977 700.887 314.093 699.88 318.2C672.504 311.994 644.746 307.607 616.79 305.07C600.77 282.064 583.22 260.161 564.26 239.51C568.927 235.017 573.69 230.647 578.55 226.4C624.43 186.47 667.31 170.71 686.85 181.98Z" fill="#1F1E1E"/>
<path d="M545.34 372.38C556.317 372.38 567.047 375.635 576.174 381.733C585.301 387.832 592.415 396.5 596.615 406.641C600.816 416.782 601.915 427.942 599.774 438.707C597.632 449.473 592.346 459.363 584.584 467.124C576.823 474.886 566.933 480.172 556.168 482.314C545.402 484.455 534.242 483.356 524.101 479.155C513.96 474.955 505.292 467.841 499.193 458.714C493.095 449.587 489.84 438.857 489.84 427.88C489.839 420.591 491.273 413.374 494.062 406.64C496.851 399.905 500.939 393.787 506.093 388.633C511.247 383.479 517.365 379.391 524.099 376.602C530.834 373.813 538.051 372.379 545.34 372.38" fill="#53C1DE"/>
</g>
<defs>
<clipPath id="clip0">
<rect width="1108" height="731.18" fill="white"/>
</clipPath>
</defs>
</svg>
